<?xml version="1.0" encoding="utf-8"?>
<svg xmlns="http://www.w3.org/2000/svg" xmlns:xlink="http://www.w3.org/1999/xlink" style="margin: auto; background: rgba(241, 242, 243, 0); display: block; shape-rendering: auto;

animation: svgAnime 15s linear infinite;
" width="158px" height="158px" viewBox="0 0 100 100" preserveAspectRatio="xMidYMid">
<g transform="rotate(0 50 50)">
  <rect x="45" y="6" rx="5" ry="5" width="10" height="10">
    <animate attributeName="opacity" values="1;0" keyTimes="0;1" dur="1.2658227848101264s" begin="-1.1954992967651195s" repeatCount="indefinite"></animate>
  </rect>
</g><g transform="rotate(20 50 50)">
  <rect x="45" y="6" rx="5" ry="5" width="10" height="10">
    <animate attributeName="opacity" values="1;0" keyTimes="0;1" dur="1.2658227848101264s" begin="-1.1251758087201125s" repeatCount="indefinite"></animate>
  </rect>
</g><g transform="rotate(40 50 50)">
  <rect x="45" y="6" rx="5" ry="5" width="10" height="10">
    <animate attributeName="opacity" values="1;0" keyTimes="0;1" dur="1.2658227848101264s" begin="-1.0548523206751055s" repeatCount="indefinite"></animate>
  </rect>
</g><g transform="rotate(60 50 50)">
  <rect x="45" y="6" rx="5" ry="5" width="10" height="10">
    <animate attributeName="opacity" values="1;0" keyTimes="0;1" dur="1.2658227848101264s" begin="-0.9845288326300984s" repeatCount="indefinite"></animate>
  </rect>
</g><g transform="rotate(80 50 50)">
  <rect x="45" y="6" rx="5" ry="5" width="10" height="10">
    <animate attributeName="opacity" values="1;0" keyTimes="0;1" dur="1.2658227848101264s" begin="-0.9142053445850914s" repeatCount="indefinite"></animate>
  </rect>
</g><g transform="rotate(100 50 50)">
  <rect x="45" y="6" rx="5" ry="5" width="10" height="10">
    <animate attributeName="opacity" values="1;0" keyTimes="0;1" dur="1.2658227848101264s" begin="-0.8438818565400843s" repeatCount="indefinite"></animate>
  </rect>
</g><g transform="rotate(120 50 50)">
  <rect x="45" y="6" rx="5" ry="5" width="10" height="10">
    <animate attributeName="opacity" values="1;0" keyTimes="0;1" dur="1.2658227848101264s" begin="-0.7735583684950773s" repeatCount="indefinite"></animate>
  </rect>
</g><g transform="rotate(140 50 50)">
  <rect x="45" y="6" rx="5" ry="5" width="10" height="10">
    <animate attributeName="opacity" values="1;0" keyTimes="0;1" dur="1.2658227848101264s" begin="-0.7032348804500703s" repeatCount="indefinite"></animate>
  </rect>
</g><g transform="rotate(160 50 50)">
  <rect x="45" y="6" rx="5" ry="5" width="10" height="10">
    <animate attributeName="opacity" values="1;0" keyTimes="0;1" dur="1.2658227848101264s" begin="-0.6329113924050632s" repeatCount="indefinite"></animate>
  </rect>
</g><g transform="rotate(180 50 50)">
  <rect x="45" y="6" rx="5" ry="5" width="10" height="10">
    <animate attributeName="opacity" values="1;0" keyTimes="0;1" dur="1.2658227848101264s" begin="-0.5625879043600562s" repeatCount="indefinite"></animate>
  </rect>
</g><g transform="rotate(200 50 50)">
  <rect x="45" y="6" rx="5" ry="5" width="10" height="10">
    <animate attributeName="opacity" values="1;0" keyTimes="0;1" dur="1.2658227848101264s" begin="-0.4922644163150492s" repeatCount="indefinite"></animate>
  </rect>
</g><g transform="rotate(220 50 50)">
  <rect x="45" y="6" rx="5" ry="5" width="10" height="10">
    <animate attributeName="opacity" values="1;0" keyTimes="0;1" dur="1.2658227848101264s" begin="-0.42194092827004215s" repeatCount="indefinite"></animate>
  </rect>
</g><g transform="rotate(240 50 50)">
  <rect x="45" y="6" rx="5" ry="5" width="10" height="10">
    <animate attributeName="opacity" values="1;0" keyTimes="0;1" dur="1.2658227848101264s" begin="-0.35161744022503516s" repeatCount="indefinite"></animate>
  </rect>
</g><g transform="rotate(260 50 50)">
  <rect x="45" y="6" rx="5" ry="5" width="10" height="10">
    <animate attributeName="opacity" values="1;0" keyTimes="0;1" dur="1.2658227848101264s" begin="-0.2812939521800281s" repeatCount="indefinite"></animate>
  </rect>
</g><g transform="rotate(280 50 50)">
  <rect x="45" y="6" rx="5" ry="5" width="10" height="10">
    <animate attributeName="opacity" values="1;0" keyTimes="0;1" dur="1.2658227848101264s" begin="-0.21097046413502107s" repeatCount="indefinite"></animate>
  </rect>
</g><g transform="rotate(300 50 50)">
  <rect x="45" y="6" rx="5" ry="5" width="10" height="10">
    <animate attributeName="opacity" values="1;0" keyTimes="0;1" dur="1.2658227848101264s" begin="-0.14064697609001406s" repeatCount="indefinite"></animate>
  </rect>
</g><g transform="rotate(320 50 50)">
  <rect x="45" y="6" rx="5" ry="5" width="10" height="10">
    <animate attributeName="opacity" values="1;0" keyTimes="0;1" dur="1.2658227848101264s" begin="-0.07032348804500703s" repeatCount="indefinite"></animate>
  </rect>
</g><g transform="rotate(340 50 50)">
  <rect x="45" y="6" rx="5" ry="5" width="10" height="10">
    <animate attributeName="opacity" values="1;0" keyTimes="0;1" dur="1.2658227848101264s" begin="0s" repeatCount="indefinite"></animate>
  </rect>
</g>
<!-- [ldio] generated by https://loading.io/ --></svg>

